<svg version="1.1" id="Layer_1" xmlns="http://www.w3.org/2000/svg" xmlns:xlink="http://www.w3.org/1999/xlink" x="0px" y="0px"
	 width="100%" viewBox="0 0 800 800" enable-background="new 0 0 800 800" xml:space="preserve">
<path fill="#000000" opacity="1.000000" stroke="none" 
	d="
M435.000000,801.000000 
	C290.000000,801.000000 145.500000,801.000000 1.000000,801.000000 
	C1.000000,534.333313 1.000000,267.666656 1.000000,1.000000 
	C267.666656,1.000000 534.333313,1.000000 801.000000,1.000000 
	C801.000000,267.666656 801.000000,534.333313 801.000000,801.000000 
	C679.166687,801.000000 557.333313,801.000000 435.000000,801.000000 
M110.151711,345.002106 
	C108.451279,345.000153 106.750847,344.998169 104.739296,344.273712 
	C102.355408,344.010834 99.939972,343.358276 97.592751,343.548309 
	C82.321770,344.784637 67.066010,346.208374 51.804455,347.561737 
	C43.908573,348.261932 36.011051,348.943573 27.653936,349.673798 
	C27.653936,390.365143 27.653936,430.437286 27.653936,470.773315 
	C35.692261,468.481995 43.654808,466.212250 52.198669,464.521545 
	C53.764656,464.780823 55.454739,465.552795 56.874775,465.209045 
	C62.506504,463.845856 68.072342,462.195709 73.626587,460.531677 
	C78.180069,459.167480 80.196228,456.207001 80.071007,451.241699 
	C79.815605,441.114624 79.904152,430.974091 80.073929,420.842834 
	C80.177773,414.646912 81.952881,413.063721 87.980789,412.129578 
	C94.987289,411.043732 101.975327,409.811218 108.933022,408.446808 
	C114.323448,407.389801 117.475723,399.137848 114.277519,394.622620 
	C113.773293,393.910736 112.671379,393.225861 111.833138,393.210266 
	C105.752884,393.097137 99.669380,393.158997 92.986969,392.767975 
	C88.993835,393.148621 85.000710,393.529236 81.001953,392.984131 
	C81.000923,386.019592 81.124809,379.051910 80.950905,372.091675 
	C80.850403,368.069489 82.039520,366.195984 86.490135,365.843231 
	C98.855736,364.863098 111.178596,363.343781 123.672653,362.929565 
	C123.015739,390.097015 122.358818,417.264465 121.687798,445.015228 
	C131.811600,442.801544 141.319473,440.722565 151.462692,439.056671 
	C155.955338,438.363373 160.624695,438.186157 164.858368,436.736603 
	C166.691772,436.108826 168.722824,432.898834 168.802612,430.791290 
	C169.737656,406.094574 170.434937,381.386871 170.945236,356.676880 
	C171.215714,343.579590 169.325531,341.832672 155.975052,341.029510 
	C155.312607,340.989685 154.646576,341.009399 153.366013,340.471863 
	C147.229858,340.597321 141.093689,340.722748 134.571945,340.665070 
	C134.045044,340.787445 133.518143,340.909821 132.178192,341.275299 
	C129.593430,341.472443 127.008675,341.669556 123.969559,342.310333 
	C123.631523,343.533783 123.293488,344.757263 122.121552,345.947479 
	C118.415100,345.634277 114.708649,345.321075 110.151711,345.002106 
M622.639832,339.204163 
	C620.992859,339.440521 619.343201,339.659393 617.699402,339.916168 
	C609.509521,341.195496 608.903198,341.780060 609.026062,350.120575 
	C609.283325,367.585541 609.614441,385.049927 610.032837,402.511780 
	C610.227905,410.653503 610.731384,418.787476 611.025330,426.927490 
	C611.146667,430.288605 612.860352,432.331818 616.060242,432.745178 
	C619.666443,433.210999 623.328857,433.241333 627.703735,433.508453 
	C636.944519,435.274323 646.185303,437.040192 656.195862,438.953156 
	C655.163940,405.679749 654.151855,373.047089 653.128418,340.045990 
	C643.581482,339.426819 634.661011,338.823853 625.735107,338.315430 
	C625.012878,338.274292 624.253662,338.881348 622.639832,339.204163 
M526.015076,338.021606 
	C520.226318,336.797668 517.813538,338.962585 518.417480,344.660828 
	C518.749023,347.789093 518.885010,350.942902 518.993835,354.089172 
	C519.668091,373.585266 520.224304,393.085907 521.006897,412.577515 
	C521.293274,419.708313 521.982483,420.076874 530.371338,419.846252 
	C556.060425,423.050537 581.749512,426.254852 607.927368,429.520111 
	C607.927368,427.156342 607.640991,424.980194 607.984436,422.908508 
	C608.809448,417.932648 606.606628,416.293945 601.878784,415.779510 
	C589.319458,414.412933 576.828308,412.416199 564.266724,411.075958 
	C560.069641,410.628174 558.774414,409.197723 558.690247,404.956665 
	C558.257324,383.151733 557.401367,361.355469 556.899780,339.551422 
	C556.819763,336.073700 555.797729,334.962494 552.312866,334.985596 
	C545.326538,335.031891 538.323303,334.799866 531.354980,334.296021 
	C528.022034,334.055054 526.779541,335.270691 526.015076,338.021606 
M222.018723,412.189301 
	C222.348160,391.407715 222.653320,370.625702 223.017960,349.844727 
	C223.183777,340.394928 223.146790,340.276489 213.734879,338.454193 
	C212.594757,338.233429 211.431519,338.132019 210.059784,337.525787 
	C210.035522,337.360840 210.011261,337.195923 209.826920,336.803589 
	C209.598740,336.612671 209.341324,336.560333 208.135529,336.877808 
	C200.323013,337.316864 192.514526,337.938873 184.696136,338.111023 
	C181.246506,338.186981 180.169571,339.275909 180.085480,342.747894 
	C179.399796,371.057098 178.521530,399.361633 177.712753,427.667877 
	C177.663177,429.402710 177.706299,431.140137 177.706299,433.059509 
	C204.344864,429.173401 230.266907,425.391815 256.364899,421.584595 
	C256.364899,417.433075 256.364899,413.838959 256.364899,409.379517 
	C244.686310,410.660522 233.361359,411.902771 222.018723,412.189301 
M749.534302,347.126160 
	C743.040710,348.182556 736.471436,348.924011 730.092102,350.456238 
	C727.671631,351.037598 725.206909,353.064148 723.619019,355.100098 
	C721.248840,358.139008 719.636963,361.769287 717.146484,364.732422 
	C713.882935,358.738312 710.839844,352.605896 707.220764,346.834778 
	C706.142090,345.114685 703.544373,343.626465 701.478210,343.372986 
	C693.228455,342.361176 684.913818,341.877686 675.759766,341.247284 
	C672.549927,342.055359 669.293396,342.716248 666.143982,343.714874 
	C663.264221,344.628052 660.500427,345.906616 657.685486,347.024139 
	C659.218567,349.884125 660.653198,352.802216 662.302429,355.593597 
	C668.283508,365.716919 674.245117,375.853882 680.395630,385.874268 
	C684.296387,392.229309 686.475952,398.291016 680.145264,404.504913 
	C678.773193,405.851715 678.124939,407.913330 677.038147,409.577057 
	C671.499634,418.056061 665.822388,426.447632 660.469421,435.041595 
	C659.589905,436.453705 659.694275,440.285034 659.999084,440.360748 
	C665.628967,441.759155 671.358582,442.756287 677.851135,443.841309 
	C684.905945,445.476257 691.978577,447.039032 699.007019,448.780396 
	C701.975891,449.515961 703.925110,448.906403 705.497864,446.071777 
	C707.645691,442.200653 710.239136,438.576813 713.338623,435.098297 
	C714.376038,436.116638 715.786560,436.954071 716.384033,438.185822 
	C718.555847,442.663788 720.762573,447.169067 722.363708,451.865967 
	C723.718750,455.841309 725.898926,458.537872 729.903931,459.766968 
	C736.892151,461.911621 743.832520,464.232819 750.892761,466.103302 
	C752.181152,466.444641 753.944946,464.991852 756.141418,464.479492 
	C763.676208,466.701752 771.210938,468.924011 779.678101,471.421265 
	C778.614258,468.815613 778.062195,467.272614 777.369385,465.795624 
	C768.125732,446.088593 758.809692,426.415100 749.691956,406.650085 
	C748.854492,404.834656 748.398865,402.013000 749.222290,400.403595 
	C753.002747,393.014221 757.359253,385.922150 761.398987,378.662170 
	C766.620422,369.278656 771.737427,359.836945 777.408752,349.491089 
	C767.795166,348.661316 759.100342,347.910858 749.534302,347.126160 
M312.246063,333.313141 
	C300.621674,333.313141 288.997253,333.313141 276.740417,333.313141 
	C275.945618,362.866486 275.187012,391.074677 274.412994,419.855927 
	C282.055542,419.241089 288.978821,418.529816 295.920319,418.188446 
	C299.581299,418.008392 301.064178,416.886688 301.093292,412.881470 
	C301.201111,398.054291 301.710602,383.229797 302.101807,368.405151 
	C302.145111,366.764648 302.398010,365.129639 302.553711,363.492096 
	C304.385376,365.093384 305.257385,366.661499 305.867554,368.325653 
	C311.141235,382.708679 316.466278,397.074432 321.535248,411.529785 
	C322.719757,414.907684 324.339294,416.215759 327.979126,415.881744 
	C334.606567,415.273621 341.272888,415.031189 347.928833,414.819641 
	C350.772430,414.729248 352.378510,413.803925 353.387085,410.906067 
	C357.711334,398.481995 362.289612,386.146027 366.808655,373.790161 
	C368.468750,369.251160 370.221191,364.745972 371.931519,360.225342 
	C372.353363,360.346893 372.775208,360.468414 373.197052,360.589966 
	C373.197052,378.150970 373.197052,395.711975 373.197052,413.506744 
	C381.243103,413.506744 388.876007,413.286163 396.487610,413.593384 
	C400.736786,413.764893 401.831543,412.230316 401.802887,408.163300 
	C401.635071,384.335022 401.714783,360.505035 401.686798,336.675659 
	C401.685272,335.389679 401.465454,334.103973 401.306976,332.379639 
	C389.099487,332.379639 377.151978,332.465485 365.207001,332.329071 
	C361.462860,332.286285 359.702240,333.787872 358.462067,337.338440 
	C352.370972,354.776825 345.989624,372.113892 339.408295,390.323822 
	C338.499298,388.328888 337.818329,387.061737 337.328491,385.724548 
	C331.486298,369.776031 325.569672,353.853271 319.931030,337.832825 
	C318.680267,334.279236 317.044708,332.389465 312.246063,333.313141 
M485.524292,345.151245 
	C490.849640,345.287201 496.174377,345.460846 501.500549,345.543518 
	C504.242249,345.586121 507.704742,347.190216 507.706665,341.904175 
	C507.709595,334.003326 507.816254,333.781219 502.161407,333.676056 
	C480.522797,333.273499 458.883331,332.914795 437.243958,332.554077 
	C434.504211,332.508392 431.763031,332.547852 429.247284,332.547852 
	C429.247284,360.020721 429.247284,386.567535 429.247284,413.648926 
	C439.681549,413.648926 449.518311,413.648926 459.664185,413.648926 
	C459.664185,402.604370 459.664185,392.024261 459.664185,381.650085 
	C472.536407,381.650085 485.047272,381.650085 497.751892,381.650085 
	C497.751892,379.863312 497.539551,378.174866 497.791168,376.558594 
	C498.588013,371.440369 496.375732,370.026062 491.438110,370.050598 
	C482.122955,370.096893 472.799347,369.556946 463.492401,369.029449 
	C462.011505,368.945526 459.380524,367.711151 459.344910,366.916199 
	C459.020844,359.684052 459.154724,352.431396 459.154724,345.151154 
	C467.943909,345.151154 476.239044,345.151154 485.524292,345.151245 
z"/>
<path fill="#EF0000" opacity="1.000000" stroke="none" 
	d="
M312.704346,333.280701 
	C317.044708,332.389465 318.680267,334.279236 319.931030,337.832825 
	C325.569672,353.853271 331.486298,369.776031 337.328491,385.724548 
	C337.818329,387.061737 338.499298,388.328888 339.408295,390.323822 
	C345.989624,372.113892 352.370972,354.776825 358.462067,337.338440 
	C359.702240,333.787872 361.462860,332.286285 365.207001,332.329071 
	C377.151978,332.465485 389.099487,332.379639 401.306976,332.379639 
	C401.465454,334.103973 401.685272,335.389679 401.686798,336.675659 
	C401.714783,360.505035 401.635071,384.335022 401.802887,408.163300 
	C401.831543,412.230316 400.736786,413.764893 396.487610,413.593384 
	C388.876007,413.286163 381.243103,413.506744 373.197052,413.506744 
	C373.197052,395.711975 373.197052,378.150970 373.197052,360.589966 
	C372.775208,360.468414 372.353363,360.346893 371.931519,360.225342 
	C370.221191,364.745972 368.468750,369.251160 366.808655,373.790161 
	C362.289612,386.146027 357.711334,398.481995 353.387085,410.906067 
	C352.378510,413.803925 350.772430,414.729248 347.928833,414.819641 
	C341.272888,415.031189 334.606567,415.273621 327.979126,415.881744 
	C324.339294,416.215759 322.719757,414.907684 321.535248,411.529785 
	C316.466278,397.074432 311.141235,382.708679 305.867554,368.325653 
	C305.257385,366.661499 304.385376,365.093384 302.553711,363.492096 
	C302.398010,365.129639 302.145111,366.764648 302.101807,368.405151 
	C301.710602,383.229797 301.201111,398.054291 301.093292,412.881470 
	C301.064178,416.886688 299.581299,418.008392 295.920319,418.188446 
	C288.978821,418.529816 282.055542,419.241089 274.412994,419.855927 
	C275.187012,391.074677 275.945618,362.866486 276.740417,333.313141 
	C288.997253,333.313141 300.621674,333.313141 312.704346,333.280701 
z"/>
<path fill="#EF0001" opacity="1.000000" stroke="none" 
	d="
M676.623291,341.198669 
	C684.913818,341.877686 693.228455,342.361176 701.478210,343.372986 
	C703.544373,343.626465 706.142090,345.114685 707.220764,346.834778 
	C710.839844,352.605896 713.882935,358.738312 717.535278,365.281738 
	C721.303406,372.319153 724.682739,378.807281 728.618591,386.363892 
	C736.304993,372.532928 743.355286,359.846649 750.405579,347.160400 
	C759.100342,347.910858 767.795166,348.661316 777.408752,349.491089 
	C771.737427,359.836945 766.620422,369.278656 761.398987,378.662170 
	C757.359253,385.922150 753.002747,393.014221 749.222290,400.403595 
	C748.398865,402.013000 748.854492,404.834656 749.691956,406.650085 
	C758.809692,426.415100 768.125732,446.088593 777.369385,465.795624 
	C778.062195,467.272614 778.614258,468.815613 779.678101,471.421265 
	C771.210938,468.924011 763.676208,466.701752 755.552979,464.253906 
	C751.870117,463.869263 749.971619,462.318115 748.671448,459.448914 
	C743.946106,449.020203 739.082825,438.652924 734.171143,428.310120 
	C731.723999,423.156952 729.059204,418.107178 725.981018,411.994171 
	C721.114868,420.330750 716.878235,427.588837 712.641602,434.846954 
	C710.239136,438.576813 707.645691,442.200653 705.497864,446.071777 
	C703.925110,448.906403 701.975891,449.515961 699.007019,448.780396 
	C691.978577,447.039032 684.905945,445.476257 677.352905,443.481964 
	C677.464355,441.815033 677.925720,440.410583 678.706543,439.214752 
	C687.152039,426.279755 695.550110,413.311554 704.197327,400.511993 
	C706.400940,397.250153 706.878662,394.800842 704.669617,391.174652 
	C695.423828,375.997742 686.523132,360.609894 677.582397,345.249023 
	C676.914551,344.101532 676.927063,342.558044 676.623291,341.198669 
z"/>
<path fill="#EF0000" opacity="1.000000" stroke="none" 
	d="
M51.617359,463.942535 
	C43.654808,466.212250 35.692261,468.481995 27.653936,470.773315 
	C27.653936,430.437286 27.653936,390.365143 27.653936,349.673798 
	C36.011051,348.943573 43.908573,348.261932 51.804455,347.561737 
	C67.066010,346.208374 82.321770,344.784637 97.592751,343.548309 
	C99.939972,343.358276 102.355408,344.010834 104.805389,345.085938 
	C104.879936,349.264740 104.888382,352.631378 104.777054,356.344238 
	C102.656754,357.764343 100.730148,359.578125 98.643181,359.786591 
	C88.527702,360.797119 78.346451,361.150757 68.231949,362.168854 
	C56.763954,363.323212 56.783680,363.522491 56.508377,374.779816 
	C56.414719,378.609680 56.287895,382.439148 56.240665,386.269592 
	C56.194530,390.011139 56.230633,393.753693 56.230633,398.037354 
	C64.962318,396.582794 72.984955,395.246338 81.007584,393.909882 
	C85.000710,393.529236 88.993835,393.148621 93.283142,393.329895 
	C93.588684,394.859924 93.598053,395.828094 93.363617,397.126648 
	C93.114258,399.968475 93.108688,402.479858 93.016464,405.374603 
	C92.062004,406.798157 91.360001,408.481262 90.294754,408.755981 
	C87.313713,409.524872 84.166679,409.619659 81.113632,410.145782 
	C72.805161,411.577637 64.511391,413.094788 55.899136,414.633972 
	C55.899136,416.947876 55.920307,418.755463 55.895729,420.562439 
	C55.726089,433.033569 55.444798,445.504578 55.443275,457.975616 
	C55.442898,461.056885 54.549076,463.010712 51.617359,463.942535 
z"/>
<path fill="#EE0000" opacity="1.000000" stroke="none" 
	d="
M485.029236,345.151184 
	C476.239044,345.151154 467.943909,345.151154 459.154724,345.151154 
	C459.154724,352.431396 459.020844,359.684052 459.344910,366.916199 
	C459.380524,367.711151 462.011505,368.945526 463.492401,369.029449 
	C472.799347,369.556946 482.122955,370.096893 491.438110,370.050598 
	C496.375732,370.026062 498.588013,371.440369 497.791168,376.558594 
	C497.539551,378.174866 497.751892,379.863312 497.751892,381.650085 
	C485.047272,381.650085 472.536407,381.650085 459.664185,381.650085 
	C459.664185,392.024261 459.664185,402.604370 459.664185,413.648926 
	C449.518311,413.648926 439.681549,413.648926 429.247284,413.648926 
	C429.247284,386.567535 429.247284,360.020721 429.247284,332.547852 
	C431.763031,332.547852 434.504211,332.508392 437.243958,332.554077 
	C458.883331,332.914795 480.522797,333.273499 502.161407,333.676056 
	C507.816254,333.781219 507.709595,334.003326 507.706665,341.904175 
	C507.704742,347.190216 504.242249,345.586121 501.500549,345.543518 
	C496.174377,345.460846 490.849640,345.287201 485.029236,345.151184 
z"/>
<path fill="#EE0000" opacity="1.000000" stroke="none" 
	d="
M209.987000,337.030975 
	C210.011261,337.195923 210.035522,337.360840 210.069809,338.211487 
	C209.281723,364.207611 208.483627,389.518005 207.660843,415.611389 
	C213.011292,414.693420 217.523849,413.919189 222.036407,413.144989 
	C233.361359,411.902771 244.686310,410.660522 256.364899,409.379517 
	C256.364899,413.838959 256.364899,417.433075 256.364899,421.584595 
	C230.266907,425.391815 204.344864,429.173401 177.706299,433.059509 
	C177.706299,431.140137 177.663177,429.402710 177.712753,427.667877 
	C178.521530,399.361633 179.399796,371.057098 180.085480,342.747894 
	C180.169571,339.275909 181.246506,338.186981 184.696136,338.111023 
	C192.514526,337.938873 200.323013,337.316864 208.813080,336.894653 
	C209.656082,336.951355 209.821548,336.991180 209.987000,337.030975 
z"/>
<path fill="#EF0000" opacity="1.000000" stroke="none" 
	d="
M526.771362,338.344543 
	C526.779541,335.270691 528.022034,334.055054 531.354980,334.296021 
	C538.323303,334.799866 545.326538,335.031891 552.312866,334.985596 
	C555.797729,334.962494 556.819763,336.073700 556.899780,339.551422 
	C557.401367,361.355469 558.257324,383.151733 558.690247,404.956665 
	C558.774414,409.197723 560.069641,410.628174 564.266724,411.075958 
	C576.828308,412.416199 589.319458,414.412933 601.878784,415.779510 
	C606.606628,416.293945 608.809448,417.932648 607.984436,422.908508 
	C607.640991,424.980194 607.927368,427.156342 607.927368,429.520111 
	C581.749512,426.254852 556.060425,423.050537 529.897034,419.358826 
	C529.254272,413.900208 529.081116,408.929199 528.918091,403.957855 
	C528.200867,382.086792 527.486633,360.215668 526.771362,338.344543 
z"/>
<path fill="#F00000" opacity="1.000000" stroke="none" 
	d="
M150.827332,438.643555 
	C141.319473,440.722565 131.811600,442.801544 121.687798,445.015228 
	C122.358818,417.264465 123.015739,390.097015 123.696259,362.023499 
	C123.783051,356.071136 123.846245,351.024811 124.008408,345.647461 
	C124.212891,344.166534 124.318405,343.016602 124.423920,341.866699 
	C127.008675,341.669556 129.593430,341.472443 132.774933,341.240723 
	C133.900299,341.086853 134.428925,340.967529 134.957535,340.848206 
	C141.093689,340.722748 147.229858,340.597321 153.583801,341.195953 
	C152.810181,374.161224 151.818756,406.402374 150.827332,438.643555 
z"/>
<path fill="#EF0001" opacity="1.000000" stroke="none" 
	d="
M623.511597,339.187195 
	C624.253662,338.881348 625.012878,338.274292 625.735107,338.315430 
	C634.661011,338.823853 643.581482,339.426819 653.128418,340.045990 
	C654.151855,373.047089 655.163940,405.679749 656.195862,438.953156 
	C646.185303,437.040192 636.944519,435.274323 627.210693,433.069214 
	C626.527771,428.317810 626.305237,424.006805 626.153503,419.693268 
	C625.359619,397.123566 624.583740,374.553284 623.885010,351.574585 
	C623.864807,349.786041 623.761353,348.406097 623.755493,346.639587 
	C623.739258,343.897797 623.625427,341.542480 623.511597,339.187195 
z"/>
<path fill="#0F0000" opacity="1.000000" stroke="none" 
	d="
M676.191528,341.222961 
	C676.927063,342.558044 676.914551,344.101532 677.582397,345.249023 
	C686.523132,360.609894 695.423828,375.997742 704.669617,391.174652 
	C706.878662,394.800842 706.400940,397.250153 704.197327,400.511993 
	C695.550110,413.311554 687.152039,426.279755 678.706543,439.214752 
	C677.925720,440.410583 677.464355,441.815033 676.960938,443.480347 
	C671.358582,442.756287 665.628967,441.759155 659.999084,440.360748 
	C659.694275,440.285034 659.589905,436.453705 660.469421,435.041595 
	C665.822388,426.447632 671.499634,418.056061 677.038147,409.577057 
	C678.124939,407.913330 678.773193,405.851715 680.145264,404.504913 
	C686.475952,398.291016 684.296387,392.229309 680.395630,385.874268 
	C674.245117,375.853882 668.283508,365.716919 662.302429,355.593597 
	C660.653198,352.802216 659.218567,349.884125 657.685486,347.024139 
	C660.500427,345.906616 663.264221,344.628052 666.143982,343.714874 
	C669.293396,342.716248 672.549927,342.055359 676.191528,341.222961 
z"/>
<path fill="#0E0000" opacity="1.000000" stroke="none" 
	d="
M151.145020,438.850098 
	C151.818756,406.402374 152.810181,374.161224 153.891907,341.460693 
	C154.646576,341.009399 155.312607,340.989685 155.975052,341.029510 
	C169.325531,341.832672 171.215714,343.579590 170.945236,356.676880 
	C170.434937,381.386871 169.737656,406.094574 168.802612,430.791290 
	C168.722824,432.898834 166.691772,436.108826 164.858368,436.736603 
	C160.624695,438.186157 155.955338,438.363373 151.145020,438.850098 
z"/>
<path fill="#0E0000" opacity="1.000000" stroke="none" 
	d="
M51.908012,464.232056 
	C54.549076,463.010712 55.442898,461.056885 55.443275,457.975616 
	C55.444798,445.504578 55.726089,433.033569 55.895729,420.562439 
	C55.920307,418.755463 55.899136,416.947876 55.899136,414.633972 
	C64.511391,413.094788 72.805161,411.577637 81.113632,410.145782 
	C84.166679,409.619659 87.313713,409.524872 90.294754,408.755981 
	C91.360001,408.481262 92.062004,406.798157 93.303299,405.159790 
	C93.653664,401.973145 93.630539,399.384705 93.607422,396.796234 
	C93.598053,395.828094 93.588684,394.859924 93.583107,393.528625 
	C99.669380,393.158997 105.752884,393.097137 111.833138,393.210266 
	C112.671379,393.225861 113.773293,393.910736 114.277519,394.622620 
	C117.475723,399.137848 114.323448,407.389801 108.933022,408.446808 
	C101.975327,409.811218 94.987289,411.043732 87.980789,412.129578 
	C81.952881,413.063721 80.177773,414.646912 80.073929,420.842834 
	C79.904152,430.974091 79.815605,441.114624 80.071007,451.241699 
	C80.196228,456.207001 78.180069,459.167480 73.626587,460.531677 
	C68.072342,462.195709 62.506504,463.845856 56.874775,465.209045 
	C55.454739,465.552795 53.764656,464.780823 51.908012,464.232056 
z"/>
<path fill="#0F0000" opacity="1.000000" stroke="none" 
	d="
M623.075684,339.195679 
	C623.625427,341.542480 623.739258,343.897797 623.522522,346.835388 
	C623.395264,348.939514 623.598511,350.461334 623.801758,351.983185 
	C624.583740,374.553284 625.359619,397.123566 626.153503,419.693268 
	C626.305237,424.006805 626.527771,428.317810 626.842285,433.045532 
	C623.328857,433.241333 619.666443,433.210999 616.060242,432.745178 
	C612.860352,432.331818 611.146667,430.288605 611.025330,426.927490 
	C610.731384,418.787476 610.227905,410.653503 610.032837,402.511780 
	C609.614441,385.049927 609.283325,367.585541 609.026062,350.120575 
	C608.903198,341.780060 609.509521,341.195496 617.699402,339.916168 
	C619.343201,339.659393 620.992859,339.440521 623.075684,339.195679 
z"/>
<path fill="#0F0000" opacity="1.000000" stroke="none" 
	d="
M123.909439,345.978516 
	C123.846245,351.024811 123.783051,356.071136 123.619102,361.577454 
	C111.178596,363.343781 98.855736,364.863098 86.490135,365.843231 
	C82.039520,366.195984 80.850403,368.069489 80.950905,372.091675 
	C81.124809,379.051910 81.000923,386.019592 81.004768,393.447021 
	C72.984955,395.246338 64.962318,396.582794 56.230633,398.037354 
	C56.230633,393.753693 56.194530,390.011139 56.240665,386.269592 
	C56.287895,382.439148 56.414719,378.609680 56.508377,374.779816 
	C56.783680,363.522491 56.763954,363.323212 68.231949,362.168854 
	C78.346451,361.150757 88.527702,360.797119 98.643181,359.786591 
	C100.730148,359.578125 102.656754,357.764343 105.027206,356.478516 
	C106.907791,357.390045 108.464371,359.433228 109.915321,359.360779 
	C111.193726,359.296936 113.519409,356.700012 113.347603,355.517242 
	C112.836868,352.001312 114.526161,347.847107 111.002197,345.007874 
	C114.708649,345.321075 118.415100,345.634277 122.777252,345.964600 
	C123.432945,345.981750 123.909431,345.978516 123.909439,345.978516 
z"/>
<path fill="#100001" opacity="1.000000" stroke="none" 
	d="
M222.027557,412.667145 
	C217.523849,413.919189 213.011292,414.693420 207.660843,415.611389 
	C208.483627,389.518005 209.281723,364.207611 210.179413,338.436249 
	C211.431519,338.132019 212.594757,338.233429 213.734879,338.454193 
	C223.146790,340.276489 223.183777,340.394928 223.017960,349.844727 
	C222.653320,370.625702 222.348160,391.407715 222.027557,412.667145 
z"/>
<path fill="#100001" opacity="1.000000" stroke="none" 
	d="
M712.990112,434.972626 
	C716.878235,427.588837 721.114868,420.330750 725.981018,411.994171 
	C729.059204,418.107178 731.723999,423.156952 734.171143,428.310120 
	C739.082825,438.652924 743.946106,449.020203 748.671448,459.448914 
	C749.971619,462.318115 751.870117,463.869263 755.226929,464.197784 
	C753.944946,464.991852 752.181152,466.444641 750.892761,466.103302 
	C743.832520,464.232819 736.892151,461.911621 729.903931,459.766968 
	C725.898926,458.537872 723.718750,455.841309 722.363708,451.865967 
	C720.762573,447.169067 718.555847,442.663788 716.384033,438.185822 
	C715.786560,436.954071 714.376038,436.116638 712.990112,434.972626 
z"/>
<path fill="#100001" opacity="1.000000" stroke="none" 
	d="
M526.393188,338.183075 
	C527.486633,360.215668 528.200867,382.086792 528.918091,403.957855 
	C529.081116,408.929199 529.254272,413.900208 529.522583,419.315430 
	C521.982483,420.076874 521.293274,419.708313 521.006897,412.577515 
	C520.224304,393.085907 519.668091,373.585266 518.993835,354.089172 
	C518.885010,350.942902 518.749023,347.789093 518.417480,344.660828 
	C517.813538,338.962585 520.226318,336.797668 526.393188,338.183075 
z"/>
<path fill="#100001" opacity="1.000000" stroke="none" 
	d="
M749.969971,347.143250 
	C743.355286,359.846649 736.304993,372.532928 728.618591,386.363892 
	C724.682739,378.807281 721.303406,372.319153 717.813293,365.489532 
	C719.636963,361.769287 721.248840,358.139008 723.619019,355.100098 
	C725.206909,353.064148 727.671631,351.037598 730.092102,350.456238 
	C736.471436,348.924011 743.040710,348.182556 749.969971,347.143250 
z"/>
<path fill="#0E0000" opacity="1.000000" stroke="none" 
	d="
M110.576950,345.005005 
	C114.526161,347.847107 112.836868,352.001312 113.347603,355.517242 
	C113.519409,356.700012 111.193726,359.296936 109.915321,359.360779 
	C108.464371,359.433228 106.907791,357.390045 105.146980,356.132263 
	C104.888382,352.631378 104.879936,349.264740 104.960953,345.447174 
	C106.750847,344.998169 108.451279,345.000153 110.576950,345.005005 
z"/>
<path fill="#100001" opacity="1.000000" stroke="none" 
	d="
M124.008408,345.647461 
	C123.909431,345.978516 123.432945,345.981750 123.194199,345.981232 
	C123.293488,344.757263 123.631523,343.533783 124.196739,342.088501 
	C124.318405,343.016602 124.212891,344.166534 124.008408,345.647461 
z"/>
<path fill="#100001" opacity="1.000000" stroke="none" 
	d="
M134.764740,340.756653 
	C134.428925,340.967529 133.900299,341.086853 133.181458,341.119202 
	C133.518143,340.909821 134.045044,340.787445 134.764740,340.756653 
z"/>
<path fill="#100001" opacity="1.000000" stroke="none" 
	d="
M209.906952,336.917297 
	C209.821548,336.991180 209.656082,336.951355 209.272644,336.779053 
	C209.341324,336.560333 209.598740,336.612671 209.906952,336.917297 
z"/>
<path fill="#000000" opacity="1.000000" stroke="none" 
	d="
M93.363617,397.126648 
	C93.630539,399.384705 93.653664,401.973145 93.389954,404.776428 
	C93.108688,402.479858 93.114258,399.968475 93.363617,397.126648 
z"/>
<path fill="#000000" opacity="1.000000" stroke="none" 
	d="
M623.885010,351.574585 
	C623.598511,350.461334 623.395264,348.939514 623.424927,347.221893 
	C623.761353,348.406097 623.864807,349.786041 623.885010,351.574585 
z"/>
</svg>